<svg xmlns="http://www.w3.org/2000/svg" viewBox="0 0 640 512"><defs><style>.cls-1{fill:#2c2c2c;}</style></defs><title>1</title><g id="Слой_2" data-name="Слой 2"><g id="Слой_1-2" data-name="Слой 1"><path class="cls-1" d="M624,448H544V113.45C544,86.19,522.47,64,496,64H384v64h96V512H624a16,16,0,0,0,16-16V464A16,16,0,0,0,624,448ZM312.24,1l-192,49.74C106,54.44,96,67.7,96,82.92V448H16A16,16,0,0,0,0,464v32a16,16,0,0,0,16,16H352V33.18C352,11.6,332.44-4.23,312.24,1ZM264,288c-13.25,0-24-14.33-24-32s10.75-32,24-32,24,14.33,24,32S277.25,288,264,288Z"/></g></g></svg>