<svg xmlns="http://www.w3.org/2000/svg" viewBox="0 0 512 421.63"><defs><style>.cls-1{fill:#2c2c2c;}</style></defs><title>2</title><g id="Слой_2" data-name="Слой 2"><g id="Слой_1-2" data-name="Слой 1"><path class="cls-1" d="M422.81,230.35H362v31.07a15,15,0,0,1,0,29.4v65.93h60.8Z"/><path class="cls-1" d="M163,197.72a15,15,0,0,1,0,25.18v36.9l23-5.05V166.87l-23-5Z"/><path class="cls-1" d="M133,222.9a15,15,0,0,1,0-25.17V155.24l-23-5V271.43l23-5Z"/><path class="cls-1" d="M18.73.47A15,15,0,0,0,0,15V406.63a15,15,0,0,0,15,15,15.25,15.25,0,0,0,3.73-.47l236-60.57V61Zm185.46,281L98.27,304.73a14.72,14.72,0,0,1-3.22.36,15,15,0,0,1-15-15V131.54a15,15,0,0,1,18.22-14.65l105.92,23.27A15,15,0,0,1,216,154.81v112A15,15,0,0,1,204.19,281.47Z"/><path class="cls-1" d="M497,64.88H284.72V356.75H332V215.35a15,15,0,0,1,15-15h90.8a15,15,0,0,1,15,15v141.4H497a15,15,0,0,0,15-15V79.88A15,15,0,0,0,497,64.88Z"/></g></g></svg>