<svg xmlns="http://www.w3.org/2000/svg" viewBox="0 0 512 449.86"><defs><style>.cls-1{fill:#2c2c2c;}</style></defs><title>3</title><g id="Слой_2" data-name="Слой 2"><g id="Layer_1" data-name="Layer 1"><rect class="cls-1" x="121.08" y="152.35" width="114.16" height="89.95"/><path class="cls-1" d="M123,110.84H235.24V0A135.26,135.26,0,0,0,123,110.84Z"/><path class="cls-1" d="M276.76,0V110.84H389A135.26,135.26,0,0,0,276.76,0Z"/><rect class="cls-1" x="276.76" y="152.35" width="114.16" height="89.95"/><path class="cls-1" d="M491.24,283.81H20.76a20.76,20.76,0,1,0,0,41.51h6.92V429.11a20.75,20.75,0,0,0,20.75,20.75H463.57a20.76,20.76,0,0,0,20.76-20.75V325.32h6.91a20.76,20.76,0,1,0,0-41.51ZM110.7,340.89v67.46H69.19v-83H110.7v15.57Zm83,0v67.46H152.22v-83h41.51Zm83,0v67.46H235.24v-83h41.52Zm83,0v67.46H318.27v-83h41.51Zm83,67.46H401.3v-83h41.51v83Z"/></g></g></svg>