<svg xmlns="http://www.w3.org/2000/svg" viewBox="0 0 576.05 447.95"><defs><style>.cls-1{fill:#2c2c2c;}</style></defs><title>4</title><g id="Слой_2" data-name="Слой 2"><g id="Слой_1-2" data-name="Слой 1"><path class="cls-1" d="M280.39,116.21,96,268.06V432a16,16,0,0,0,16,16l112.06-.29a16,16,0,0,0,15.92-16V336a16,16,0,0,1,16-16h64a16,16,0,0,1,16,16v95.64A16,16,0,0,0,352,447.64H352L464,448a16,16,0,0,0,16-16V268L295.69,116.21a12.19,12.19,0,0,0-15.3,0ZM571.62,219.42,488,150.51V12A12,12,0,0,0,476,0H420a12,12,0,0,0-12,12V84.61L318.49,11a48,48,0,0,0-61,0L4.36,219.42a12,12,0,0,0-1.61,16.89h0l25.5,31A12,12,0,0,0,45.15,269l0,0L280.39,75.21a12.19,12.19,0,0,1,15.3,0L530.92,269a12,12,0,0,0,16.89-1.59h0l25.5-31a12,12,0,0,0-1.66-16.89l0,0Z"/></g></g></svg>