<svg xmlns="http://www.w3.org/2000/svg" viewBox="0 0 224.04 223.86"><defs><style>.cls-1{fill:#2c2c2c;}</style></defs><title>gate</title><g id="Слой_2" data-name="Слой 2"><g id="Слой_1-2" data-name="Слой 1"><path class="cls-1" d="M222.74,63.63a124.16,124.16,0,0,0-26.63-32.19A126.93,126.93,0,0,0,119.46.25,124.92,124.92,0,0,0,62,10.16C36.42,21.07,16.46,38.63,2,62.43a13.07,13.07,0,0,0-2,7.05q.06,72.87,0,145.73c0,6.18,2.45,8.65,8.57,8.65H216.07c5.19,0,8-2.68,8-7.76q0-73.74,0-147.48A9.67,9.67,0,0,0,222.74,63.63Zm-41-26.29c0-.13.18-.25.38-.51a113.49,113.49,0,0,1,23.06,23.52c-.68.89-1.49.51-2.16.52-6.42,0-12.83,0-19.25,0-1.12,0-2.12.15-2.11-1.57C181.75,52,181.73,44.67,181.75,37.34Zm-42.2,1.26c0-6.75,0-13.5,0-20.25,0-1.56.07-2.13,2-1.6A126.92,126.92,0,0,1,167.15,27a3,3,0,0,1,1.81,3.1q-.14,14.24,0,28.49c0,1.86-.44,2.4-2.35,2.38-8.33-.11-16.66-.09-25,0-1.63,0-2.12-.42-2.1-2.08C139.6,52.1,139.55,45.35,139.55,38.6Zm0,82.68c0-15,0-30,0-45,0-1.82.27-2.56,2.37-2.52,8.33.14,16.66.1,25,0,1.65,0,2.09.44,2.08,2.08q-.06,45.36,0,90.72c0,1.82-.62,2.2-2.3,2.19q-12.49-.12-25,0c-1.83,0-2.16-.61-2.15-2.28C139.58,151.44,139.55,136.36,139.55,121.28ZM42.36,36.47v7.07c0,5.09,0,10.17,0,15.25,0,1.1.14,2.14-1.58,2.13-7.23-.07-14.45,0-22.29,0A116.13,116.13,0,0,1,42.36,36.47Zm-1.72,174.4c-4.33-.06-8.66,0-13,0s-8.49,0-12.73,0c-1.27,0-1.93-.11-1.92-1.69.08-8.65.06-17.3,0-26,0-1.3.37-1.73,1.68-1.72q13,.08,26,0c1.32,0,1.71.45,1.7,1.74q0,13,0,25.95C42.39,210.57,41.9,210.89,40.64,210.87Zm-.49-42.08q-12.48-.14-25,0c-1.82,0-2.17-.6-2.16-2.27.06-15.07,0-30.14,0-45.21s0-30.14,0-45.21c0-1.91.5-2.32,2.34-2.3q12.48.17,25,0c1.66,0,2.08.46,2.08,2.08q-.07,45.33,0,90.67C42.39,168.3,41.91,168.81,40.15,168.79ZM56.88,27A124.83,124.83,0,0,1,83,16.61c1.73-.47,1.54.38,1.54,1.45,0,6.83,0,13.66,0,20.49s0,13.5,0,20.25c0,1.58-.35,2.15-2.05,2.13q-12.63-.13-25.25,0c-1.63,0-2.15-.41-2.14-2.08q.12-14.61,0-29.24A2.63,2.63,0,0,1,56.88,27ZM82.75,210.88q-12.87-.1-25.73,0c-1.64,0-1.92-.58-1.9-2,.09-4.24,0-8.49,0-12.73h0c0-4.25,0-8.5,0-12.74,0-1.42.43-1.88,1.84-1.87q12.87.09,25.73,0c1.37,0,1.87.34,1.86,1.8q-.11,12.87,0,25.73C84.55,210.47,84.18,210.89,82.75,210.88Zm-.67-42.08c-8.25-.12-16.49-.11-24.74,0-1.78,0-2.22-.54-2.22-2.26q.06-45.36,0-90.71c0-1.77.63-2,2.16-2q12.62.09,25.24,0c1.64,0,2,.44,2,2.07-.07,15.15,0,30.32,0,45.48,0,15,0,30,0,45C84.57,168.3,84.05,168.83,82.08,168.8ZM99.4,13.61A105.08,105.08,0,0,1,125,13.7c1.23.16,1.62.55,1.62,1.82q-.08,21.84,0,43.69c0,1.29-.36,1.71-1.69,1.7-8.57,0-17.14-.07-25.71,0-1.75,0-1.81-.76-1.8-2.1,0-7.15,0-14.31,0-21.46s0-14.15,0-21.22C97.39,14.59,97.61,13.81,99.4,13.61Zm25.41,197.27q-12.86-.09-25.72,0c-1.33,0-1.67-.39-1.67-1.69q.09-13,0-26c0-1.3.39-1.72,1.7-1.71,8.58.05,17.15.07,25.72,0,1.48,0,1.82.49,1.8,1.86-.08,4.33,0,8.66,0,13s-.06,8.5,0,12.74C126.68,210.55,126.19,210.89,124.81,210.88Zm1.8-89.57c0,15,0,30,0,45,0,1.88-.35,2.56-2.42,2.53-8.24-.14-16.49-.1-24.73,0-1.64,0-2.09-.44-2.09-2.1q.07-45.46,0-90.94c0-1.53.37-2,1.92-1.94q12.49.12,25,0c1.83,0,2.35.38,2.34,2.29C126.57,91.16,126.61,106.23,126.61,121.31ZM169,208.77c0,1.6-.39,2.17-2.08,2.12-4.24-.13-8.49,0-12.74,0s-8.33-.06-12.49,0c-1.53,0-2.16-.24-2.14-2,.1-8.41.09-16.83,0-25.24,0-1.56.29-2.17,2-2.15q12.61.12,25.23,0c1.53,0,2.21.26,2.19,2Q168.83,196.15,169,208.77Zm42.09.33c0,1.45-.46,1.78-1.83,1.77q-12.86-.08-25.71,0c-1.44,0-1.83-.44-1.82-1.84q.07-12.84,0-25.7c0-1.45.5-1.85,1.89-1.83,4.32.07,8.65,0,13,0,4.16,0,8.32,0,12.48,0,1.41,0,2,.21,2,1.88C211,192,211,200.53,211,209.1Zm-2.46-40.3q-12.36-.17-24.72,0c-1.84,0-2.19-.63-2.19-2.3q.06-45.33,0-90.67c0-1.72.57-2,2.14-2,8.41.07,16.82.09,25.23,0,1.69,0,2,.53,2,2.1-.06,15.15,0,30.31,0,45.46,0,15,0,30,.05,45C211.07,168.28,210.55,168.82,208.58,168.8Z"/></g></g></svg>