<svg xmlns="http://www.w3.org/2000/svg" viewBox="0 0 437.83 437.58"><defs><style>.cls-1{fill:#2c2c2c;}</style></defs><title>window</title><g id="Слой_2" data-name="Слой 2"><g id="Слой_1-2" data-name="Слой 1"><path class="cls-1" d="M218.79,437.5q-102.49,0-205,.08C6.29,437.59-.12,431,0,423.81c.08-4.41,0-8.83,0-13.25a13.32,13.32,0,0,1,12.8-13.63c4-.2,8-.21,12-.07,2.11.08,2.62-.59,2.62-2.66q-.09-65.37,0-130.74c0-3.49,0-3.49,3.61-3.49,11.58,0,23.17.07,34.75-.06,2.28,0,2.69.64,2.69,2.77-.06,43.67,0,87.33-.1,131,0,2.46.51,3.19,3.11,3.19q147.5-.09,295,0c2.4,0,3-.56,3-3-.09-43.66,0-87.33-.13-131,0-2.42.57-3,3-3,11.75.15,23.5.13,35.25,0,2.2,0,2.9.44,2.9,2.81-.09,43.66,0,87.33-.13,131,0,2.48.51,3.32,3.11,3.17a104.86,104.86,0,0,1,11.49,0,13.33,13.33,0,0,1,12.84,13.35c.06,4.67.08,9.34,0,14a13.37,13.37,0,0,1-13.49,13.21Z"/><path class="cls-1" d="M410.4,28.18C410.4,11.87,398.51,0,382.15,0Q218.91,0,55.66,0A32.64,32.64,0,0,0,49,.65,27.42,27.42,0,0,0,27.4,27.43q0,101-.06,202c0,2.45.48,3.15,3.07,3.15q94.25-.13,188.49-.06,94.5,0,189,.05c2.15,0,2.56-.62,2.56-2.64Q410.36,129,410.4,28.18ZM195.83,191.55q-62.47-.11-125,0c-1.89,0-2.51-.38-2.51-2.42q.09-72.86,0-145.71c0-2,.57-2.44,2.49-2.44q62.49.07,125,0c2.39,0,2.64.8,2.63,2.82q-.09,36.24,0,72.48c0,24.24,0,48.49,0,72.73C198.46,191.07,197.89,191.55,195.83,191.55Zm171,0q-62.47-.11-125,0c-1.87,0-2.52-.35-2.52-2.41q.09-72.85,0-145.71c0-2,.53-2.46,2.47-2.45q62.49.09,125,0c2.37,0,2.65.77,2.64,2.81q-.09,36.24,0,72.48c0,24.24,0,48.49.05,72.73C369.46,191.05,368.91,191.55,366.84,191.55Z"/></g></g></svg>